# File created by Blade
# Date/Time:  Wed Apr 08 17:39:41 2015
#---------------------------------------------------------
:version 1.10
:name HOM
:units
  mass 1.0
  length 1.000000
  angle deg
:documentation
     Acclaim Skeleton File
:root
   axis xyz
   order TX TY TZ RX RY RZ
   position 0.000000 0.000000 0.000000
   orientation 0 0 0
:bonedata
   begin
      id 1
      name Spine_dum
      direction 0.000000 1.000000 0.000000
      length 5.893853
      axis 0.0 0.0 0.0 xyz
   end
   begin
      id 2
      name LeftUpLeg_dum
      direction 1.000000 0.000000 0.000000
      length 3.697939
      axis 0.0 0.0 0.0 xyz
   end
   begin
      id 3
      name RightUpLeg_dum
      direction -1.000000 0.000000 0.000000
      length 3.697939
      axis 0.0 0.0 0.0 xyz
   end
   begin
      id 4
      name Spine
      direction 0.000000 1.000000 0.000000
      length 0.000000
      axis 0.0 0.0 0.0 xyz
      dof rx ry rz
   end
   begin
      id 5
      name Spine_dum1
      direction 0.000000 1.000000 0.000000
      length 16.447146
      axis 0.0 0.0 0.0 xyz
   end
   begin
      id 6
      name Spine_dum2
      direction 0.000000 1.000000 0.000000
      length 10.900383
      axis 0.0 0.0 0.0 xyz
   end
   begin
      id 7
      name Spine_dum3
      direction 0.000000 1.000000 0.000000
      length 10.900383
      axis 0.0 0.0 0.0 xyz
   end
   begin
      id 8
      name Head
      direction 0.000000 1.000000 0.000000
      length 4.527550
      axis 0.0 0.0 0.0 xyz
      dof rx ry rz
   end
   begin
      id 9
      name LeftShoulder
      direction 1.000000 0.000000 0.000000
      length 8.219464
      axis 0.0 0.0 -90.0 xyz
      dof rx ry rz
   end
   begin
      id 10
      name LeftArm
      direction 1.000000 0.000000 0.000000
      length 11.094937
      axis 0.0 0.0 -90.0 xyz
      dof rx ry rz
   end
   begin
      id 11
      name LeftForeArm
      direction 1.000000 0.000000 0.000000
      length 9.103875
      axis 0.0 0.0 -90.0 xyz
      dof ry rz rx
   end
   begin
      id 12
      name LeftHand
      direction 0.000000 0.000000 0.000000
      length 0.000000
      axis 0.0 0.0 -90.0 xyz
      dof rx ry rz
   end
   begin
      id 13
      name LeftHand_dum1
      direction 0.000000 0.000000 0.000000
      length 0.000000
      axis 0.0 0.0 -90.0 xyz
   end
   begin
      id 14
      name LeftHand_dum2
      direction 1.000000 0.000000 0.000000
      length 3.937000
      axis 0.0 0.0 -90.0 xyz
   end
   begin
      id 15
      name LeftHandThumb1
      direction 0.000000 0.000000 1.000000
      length 3.937000
      axis 0.0 0.0 -90.0 xyz
      dof rx rz ry
   end
   begin
      id 16
      name RightShoulder
      direction -1.000000 0.000000 0.000000
      length 8.219464
      axis 0.0 0.0 90.0 xyz
      dof rx ry rz
   end
   begin
      id 17
      name RightArm
      direction -1.000000 0.000000 0.000000
      length 11.094937
      axis 0.0 0.0 90.0 xyz
      dof rx ry rz
   end
   begin
      id 18
      name RightForeArm
      direction -1.000000 0.000000 0.000000
      length 9.103875
      axis 0.0 0.0 90.0 xyz
      dof ry rz rx
   end
   begin
      id 19
      name RightHand
      direction 0.000000 0.000000 0.000000
      length 0.000000
      axis 0.0 0.0 90.0 xyz
      dof rx ry rz
   end
   begin
      id 20
      name RightHand_dum1
      direction 0.000000 0.000000 0.000000
      length 0.000000
      axis 0.0 0.0 90.0 xyz
   end
   begin
      id 21
      name RightHand_dum2
      direction -1.000000 0.000000 0.000000
      length 3.937000
      axis 0.0 0.0 90.0 xyz
   end
   begin
      id 22
      name RightHandThumb1
      direction 0.000000 0.000000 1.000000
      length 3.937000
      axis 0.0 0.0 90.0 xyz
      dof rx rz ry
   end
   begin
      id 23
      name LeftUpLeg
      direction 0.000000 -1.000000 0.000000
      length 16.181467
      axis 0.0 0.0 0.0 xyz
      dof rx ry rz
   end
   begin
      id 24
      name LeftLeg
      direction 0.000000 -1.000000 0.000000
      length 16.501392
      axis 0.0 0.0 0.0 xyz
      dof rx ry rz
   end
   begin
      id 25
      name LeftFoot
      direction 0.000000 -0.258819 0.965926
      length 6.408245
      axis 15.0 0.0 0.0 xyz
      dof rx ry rz
   end
   begin
      id 26
      name LeftToeBase
      direction 0.000000 0.000000 1.000000
      length 2.952750
      axis 0.0 0.0 0.0 xyz
      dof rx ry rz
   end
   begin
      id 27
      name RightUpLeg
      direction 0.000000 -1.000000 0.000000
      length 16.181467
      axis 0.0 0.0 0.0 xyz
      dof rx ry rz
   end
   begin
      id 28
      name RightLeg
      direction 0.000000 -1.000000 0.000000
      length 16.501392
      axis 0.0 0.0 0.0 xyz
      dof rx ry rz
   end
   begin
      id 29
      name RightFoot
      direction 0.000000 -0.258819 0.965926
      length 6.408245
      axis 15.0 0.0 0.0 xyz
      dof rx ry rz
   end
   begin
      id 30
      name RightToeBase
      direction 0.000000 0.000000 1.000000
      length 2.952750
      axis 0.0 0.0 0.0 xyz
      dof rx ry rz
   end
:hierarchy
   begin
      root Spine_dum LeftUpLeg_dum RightUpLeg_dum
      Spine_dum Spine
      LeftUpLeg_dum LeftUpLeg
      RightUpLeg_dum RightUpLeg
      Spine Spine_dum1 Spine_dum2 Spine_dum3
      Spine_dum1 Head
      Spine_dum2 LeftShoulder
      Spine_dum3 RightShoulder
      LeftShoulder LeftArm
      LeftArm LeftForeArm
      LeftForeArm LeftHand
      LeftHand LeftHand_dum1 LeftHand_dum2
      LeftHand_dum1 LeftHandThumb1
      RightShoulder RightArm
      RightArm RightForeArm
      RightForeArm RightHand
      RightHand RightHand_dum1 RightHand_dum2
      RightHand_dum1 RightHandThumb1
      LeftUpLeg LeftLeg
      LeftLeg LeftFoot
      LeftFoot LeftToeBase
      RightUpLeg RightLeg
      RightLeg RightFoot
      RightFoot RightToeBase
   end

# File created by Blade
# Date/Time:  Wed Apr 08 17:39:35 2015
# Frame Rate: 120.000 fps
#------------------------------------------------------
:FULLY-SPECIFIED
:DEGREES
1046
root 7.081274 35.921437 3.135846 16.876093 -64.523620 -362.501658
Spine -17.613281 -6.485228 -3.921584
Head 40.925624 4.100366 16.342032
LeftShoulder -8.815151 22.506973 13.728475
LeftArm 19.526553 18.565296 -76.381907
LeftForeArm 17.958766 -0.000000 24.289496
LeftHand -12.210302 -0.000000 -12.617574
LeftHandThumb1 -26.253704 0.000000 33.147579
RightShoulder -39.480670 -50.799187 22.254184
RightArm 54.617913 -18.087624 50.338988
RightForeArm 11.075518 -0.000000 20.605648
RightHand 1.122820 -0.000000 17.717928
RightHandThumb1 -24.326973 -0.000000 -32.862282
LeftUpLeg -18.977135 5.178754 -7.154148
LeftLeg 19.045326 -0.000000 -0.000000
LeftFoot -16.509643 9.164008 -2.422866
LeftToeBase 5.135480 -0.000000 -0.000000
RightUpLeg -77.440013 -1.131700 14.770398
RightLeg 64.327771 -0.000000 -0.000000
RightFoot 20.194012 -2.812861 29.070128
RightToeBase 5.846505 -0.000000 -0.000000
1047
root 7.076759 35.920650 3.134888 16.844602 -64.511493 -362.503544
Spine -17.554098 -6.490987 -3.929210
Head 40.955531 4.102439 16.388110
LeftShoulder -8.800887 22.486182 13.757542
LeftArm 19.562084 18.533177 -76.417439
LeftForeArm 17.981901 -0.000000 24.400139
LeftHand -12.161872 -0.000000 -12.618245
LeftHandThumb1 -26.253704 0.000000 33.147579
RightShoulder -39.521595 -50.796154 22.290482
RightArm 54.588828 -18.023564 50.420137
RightForeArm 10.605602 -0.000000 20.617943
RightHand 1.172414 -0.000000 16.580260
RightHandThumb1 -24.326973 -0.000000 -32.862282
LeftUpLeg -18.923323 5.149573 -7.136379
LeftLeg 19.023003 -0.000000 -0.000000
LeftFoot -16.513202 9.174799 -2.428104
LeftToeBase 5.089229 -0.000000 -0.000000
RightUpLeg -77.406585 -1.126540 14.793226
RightLeg 63.987791 -0.000000 -0.000000
RightFoot 17.406899 -1.572502 28.474305
RightToeBase 4.397840 -0.000000 -0.000000
1048
root 7.074066 35.920440 3.136454 16.831338 -64.517525 -362.494421
Spine -17.535199 -6.490296 -3.923814
Head 41.000378 4.108657 16.395244
LeftShoulder -8.811720 22.481565 13.761245
LeftArm 19.603880 18.508145 -76.449112
LeftForeArm 18.000121 -0.000000 24.520373
LeftHand -12.175444 0.000000 -12.491578
LeftHandThumb1 -26.253704 0.000000 33.147579
RightShoulder -39.541227 -50.803475 22.286565
RightArm 54.590081 -17.977869 50.461980
RightForeArm 10.124594 0.000000 20.580283
RightHand 1.171347 0.000000 15.572825
RightHandThumb1 -24.326973 -0.000000 -32.862282
LeftUpLeg -18.900999 5.151638 -7.141136
LeftLeg 19.001713 -0.000000 -0.000000
LeftFoot -16.509205 9.183650 -2.411492
LeftToeBase 5.069387 -0.000000 -0.000000
RightUpLeg -77.416016 -1.132905 14.782914
RightLeg 63.643425 -0.000000 -0.000000
RightFoot 14.886690 -0.528515 27.889575
RightToeBase -0.767466 -0.000000 0.000000
1049
root 7.067824 35.918817 3.141990 16.685605 -64.553649 -362.459776
Spine -17.387235 -6.464198 -3.954587
Head 41.027965 4.124434 16.423087
LeftShoulder -8.833632 22.461770 13.767577
LeftArm 19.675217 18.489526 -76.477817
LeftForeArm 17.955787 -0.000000 24.581619
LeftHand -12.215112 -0.000000 -12.447202
LeftHandThumb1 -26.253704 0.000000 33.147579
RightShoulder -39.473843 -50.775418 22.218231
RightArm 54.549835 -17.933470 50.536299
RightForeArm 9.585588 -0.000000 20.540929
RightHand 1.125360 0.000000 14.699241
RightHandThumb1 -24.326973 -0.000000 -32.862282
LeftUpLeg -18.748008 5.206316 -7.158398
LeftLeg 18.953983 -0.000000 -0.000000
LeftFoot -16.505694 9.182624 -2.383285
LeftToeBase 5.036082 -0.000000 -0.000000
RightUpLeg -77.324946 -1.130416 14.670056
RightLeg 63.301027 -0.000000 -0.000000
RightFoot 12.461709 0.223256 27.339673
RightToeBase -4.627253 -0.000000 0.000000
1050
root 7.063870 35.918274 3.145080 16.597065 -64.566124 -362.435296
Spine -17.294613 -6.451549 -3.969582
Head 41.064805 4.114120 16.435894
LeftShoulder -8.822436 22.431970 13.787405
LeftArm 19.694043 18.436414 -76.534091
LeftForeArm 17.883472 -0.000000 24.666614
LeftHand -12.235291 -0.000000 -12.312849
LeftHandThumb1 -26.253704 0.000000 33.147579
RightShoulder -39.431996 -50.760433 22.171876
RightArm 54.551597 -17.922987 50.540998
RightForeArm 8.980541 -0.000000 20.479337
RightHand 1.133043 -0.000000 13.773937
RightHandThumb1 -24.326973 -0.000000 -32.862282
LeftUpLeg -18.660142 5.238283 -7.167720
LeftLeg 18.928870 -0.000000 -0.000000
LeftFoot -16.493147 9.157494 -2.378775
LeftToeBase 4.997954 -0.000000 -0.000000
RightUpLeg -77.302153 -1.140527 14.564297
RightLeg 63.007252 -0.000000 -0.000000
RightFoot 10.063363 0.642214 26.171332
RightToeBase -8.041843 -0.000000 0.000000
1051
root 7.060000 35.916497 3.150175 16.424281 -64.572987 -362.382300
Spine -17.119511 -6.436922 -4.007671
Head 41.065858 4.120683 16.471582
LeftShoulder -8.815649 22.378144 13.810225
LeftArm 19.716467 18.394402 -76.594749
LeftForeArm 17.841958 0.000000 24.738296
LeftHand -12.256535 -0.000000 -12.219160
LeftHandThumb1 -26.253704 0.000000 33.147579
RightShoulder -39.366659 -50.712127 22.116725
RightArm 54.528829 -17.859109 50.586169
RightForeArm 8.460171 -0.000000 20.415959
RightHand 1.023561 0.000000 13.212092
RightHandThumb1 -24.326973 -0.000000 -32.862282
LeftUpLeg -18.510372 5.280155 -7.187426
LeftLeg 18.901255 -0.000000 -0.000000
LeftFoot -16.493256 9.135751 -2.338716
LeftToeBase 5.002595 -0.000000 -0.000000
RightUpLeg -77.211284 -1.130329 14.353720
RightLeg 62.689129 -0.000000 -0.000000
RightFoot 7.838713 0.972959 24.934502
RightToeBase -10.235678 -0.000000 0.000000
1052
root 7.050874 35.914036 3.154240 16.220951 -64.582665 -362.361796
Spine -16.880714 -6.417389 -4.048298
Head 41.064820 4.126751 16.521985
LeftShoulder -8.774366 22.289125 13.856436
LeftArm 19.679769 18.307275 -76.688635
LeftForeArm 17.841775 0.000000 24.811189
LeftHand -12.290278 -0.000000 -12.186419
LeftHandThumb1 -26.253704 0.000000 33.147579
RightShoulder -39.310566 -50.681440 22.094219
RightArm 54.533773 -17.764902 50.619110
RightForeArm 7.930099 -0.000000 20.328799
RightHand 0.905214 -0.000000 12.765163
RightHandThumb1 -24.326973 -0.000000 -32.862282
LeftUpLeg -18.300459 5.378162 -7.188026
LeftLeg 18.884835 -0.000000 -0.000000
LeftFoot -16.510881 9.070637 -2.309195
LeftToeBase 5.006310 -0.000000 -0.000000
RightUpLeg -77.042053 -1.134884 14.134856
RightLeg 62.364936 -0.000000 -0.000000
RightFoot 5.683605 0.856001 23.661924
RightToeBase -12.478281 -0.000000 0.000000
1053
root 7.039900 35.909840 3.161982 15.893632 -64.619334 -362.301829
Spine -16.537488 -6.361759 -4.121361
Head 41.044166 4.133293 16.562158
LeftShoulder -8.762616 22.241232 13.868658
LeftArm 19.755364 18.289965 -76.693873
LeftForeArm 17.747302 -0.000000 24.843389
LeftHand -12.298635 -0.000000 -12.091520
LeftHandThumb1 -26.253704 0.000000 33.147579
RightShoulder -39.255621 -50.632566 22.080684
RightArm 54.557604 -17.674577 50.616032
RightForeArm 7.501433 -0.000000 20.233526
RightHand 0.773008 -0.000000 12.438711
RightHandThumb1 -24.326973 -0.000000 -32.862282
LeftUpLeg -17.981041 5.497653 -7.206682
LeftLeg 18.838609 -0.000000 -0.000000
LeftFoot -16.525282 9.023227 -2.258981
LeftToeBase 4.995189 -0.000000 -0.000000
RightUpLeg -76.791852 -1.158151 13.888350
RightLeg 62.049841 -0.000000 -0.000000
RightFoot 3.606649 0.300173 21.908608
RightToeBase -14.377418 -0.000000 0.000000
1054
root 7.036088 35.908253 3.163720 15.787661 -64.578458 -362.302150
Spine -16.387307 -6.381198 -4.122749
Head 41.042690 4.127966 16.587862
LeftShoulder -8.734839 22.208188 13.888174
LeftArm 19.791180 18.268015 -76.721346
LeftForeArm 17.718819 -0.000000 24.906960
LeftHand -12.308042 -0.000000 -12.046990
LeftHandThumb1 -26.253704 0.000000 33.147579
RightShoulder -39.213178 -50.616106 22.058287
RightArm 54.580481 -17.591051 50.618337
RightForeArm 7.068502 -0.000000 20.137987
RightHand 0.584548 0.000000 12.232842
RightHandThumb1 -24.326973 -0.000000 -32.862282
LeftUpLeg -17.882575 5.514619 -7.190344
LeftLeg 18.867731 -0.000000 -0.000000
LeftFoot -16.538057 8.984699 -2.243260
LeftToeBase 4.971758 -0.000000 -0.000000
RightUpLeg -76.709609 -1.201980 13.712448
RightLeg 61.705330 -0.000000 -0.000000
RightFoot 1.627119 -0.783451 19.912531
RightToeBase -15.962533 -0.000000 0.000000
1055
root 7.023418 35.902102 3.172966 15.399756 -64.580726 -362.285336
Spine -15.914792 -6.340941 -4.168078
Head 40.993203 4.141537 16.609680
LeftShoulder -8.691447 22.115903 13.888694
LeftArm 19.820618 18.238053 -76.722767
LeftForeArm 17.696879 -0.000000 24.985825
LeftHand -12.360935 -0.000000 -12.017625
LeftHandThumb1 -26.253704 0.000000 33.147579
RightShoulder -39.086485 -50.551669 21.978207
RightArm 54.581028 -17.484599 50.651057
RightForeArm 6.586592 -0.000000 20.043410
RightHand 0.422391 0.000000 12.134073
RightHandThumb1 -24.326973 -0.000000 -32.862282
LeftUpLeg -17.471789 5.592794 -7.170625
LeftLeg 18.845287 -0.000000 -0.000000
LeftFoot -16.581183 8.976667 -2.192486
LeftToeBase 4.985062 -0.000000 -0.000000
RightUpLeg -76.366418 -1.268065 13.498512
RightLeg 61.394481 -0.000000 -0.000000
RightFoot -0.341273 -2.337287 17.768524
RightToeBase -16.850950 -0.000000 0.000000
1056
root 7.012901 35.897355 3.181631 15.060217 -64.598898 -362.211923
Spine -15.573376 -6.282681 -4.243464
Head 40.966419 4.132714 16.645517
LeftShoulder -8.641049 22.062229 13.906716
LeftArm 19.874071 18.268419 -76.700645
LeftForeArm 17.646470 -0.000000 25.052710
LeftHand -12.436562 -0.000000 -11.953298
LeftHandThumb1 -26.253704 0.000000 33.147579
RightShoulder -39.071452 -50.515174 21.987623
RightArm 54.648309 -17.434313 50.577015
RightForeArm 6.174152 -0.000000 19.963350
RightHand 0.176328 -0.000000 11.968558
RightHandThumb1 -24.326973 -0.000000 -32.862282
LeftUpLeg -17.160113 5.624121 -7.181684
LeftLeg 18.817941 -0.000000 -0.000000
LeftFoot -16.597178 8.988325 -2.164940
LeftToeBase 4.955234 -0.000000 -0.000000
RightUpLeg -76.100281 -1.257223 13.163718
RightLeg 61.038100 -0.000000 -0.000000
RightFoot -2.181573 -4.249893 16.485001
RightToeBase -17.452362 -0.000000 0.000000
